<svg width="24" height="25" viewBox="0 0 24 25" fill="none" xmlns="http://www.w3.org/2000/svg">
<path d="M0.00015393 24.9999H1.06952L6.36838 11.5826L7.02581 12.5423L2.10528 25H4.5423L8.5618 14.7798L12.3183 20.2525L12.4642 20.4638L12.7127 20.4621L13.726 20.4538L18.2698 8.56673L19.3007 8.57173L14.7617 20.4439L16.325 20.4305L17.0016 20.4238L16.9903 20.3923H17.0208L21.6768 8.58179L24 8.59335L22.3887 3.01362e-07L14.8852 8.55012L17.1603 8.56013L14.3834 15.6031L11.0116 10.7576L10.8658 10.5479L10.6157 10.5513L10.2228 10.5562L10.2276 10.5446L5.6855 10.6061L0 24.9999H0.00015393ZM7.55015 11.5893L10.3799 11.5494L13.957 16.6877L12.8954 19.3774L7.55015 11.5893Z" fill="#D3222A"/>
</svg>
