<svg width="1082" height="131" viewBox="0 0 1082 131" fill="none" xmlns="http://www.w3.org/2000/svg">
<path d="M39.5333 1.14146C18.6 4.20813 6.6 16.0748 1.8 38.2081C-0.6 49.6748 -0.6 80.3415 1.8 91.8081C5.53333 109.141 13.4 120.075 26.6 126.208C33.4 129.408 35.2667 129.675 52.6 129.675C69.4 129.675 71.9333 129.408 78.2 126.475C86.6 122.741 96.3333 112.741 99.9333 104.208C104.333 94.2081 103.8 93.0081 95.4 93.0081C88.3333 93.0081 88.0667 93.1415 86.7333 97.4081C84.0667 105.408 77.8 111.408 69.6667 113.808C58.3333 117.141 37.1333 115.941 29.2667 111.541C17.9333 105.275 13.8 89.6748 15 57.6748C16.2 23.0081 22.8667 15.6748 53.1333 15.6748C74.7333 15.6748 81.6667 19.4081 86.7333 33.1415L89.6667 41.0081H96.8667H104.2L103.267 35.9415C101.933 28.0748 96.7333 18.0748 91.2667 12.7415C80.2 1.80813 62.2 -2.19187 39.5333 1.14146Z" fill="#D3222A"/>
<path d="M113.533 65.2746L113.933 129.675L120.867 130.075L127.8 130.475L128.2 92.0746C128.6 49.4079 129 47.5413 137.667 42.3413C141.267 40.0746 144.467 39.6746 157.4 39.6746C171.133 39.6746 173.267 39.9413 176.467 42.4746C184.2 48.6079 184.6 50.3413 185.267 91.6746L185.933 129.675H193.267H200.6L201 103.675C201.667 58.6079 198.6 43.1413 187.4 33.5413C180.6 27.6746 171 24.8746 156.867 24.7413C145.933 24.4746 143.933 25.1413 129 32.7413C128.333 33.0079 127.933 25.9413 127.933 17.1413V1.00794H120.6H113.267L113.533 65.2746Z" fill="#D3222A"/>
<path d="M313.267 8.34147V15.6748H321.267H329.267V8.34147V1.00814H321.267H313.267V8.34147Z" fill="white"/>
<path d="M448.2 63.9408C440.6 98.6075 434.466 127.807 434.6 128.607C434.6 129.941 438.066 130.341 447.133 130.341C454.066 130.341 460.066 129.941 460.333 129.274C460.733 128.741 466.066 105.407 472.2 77.4075C482.733 28.7408 483.4 26.3408 486.2 26.3408C488.2 26.3408 489.4 27.2741 489.933 29.2741C490.333 31.0075 494.866 53.0075 499.933 78.3408C505 103.674 509.533 125.674 509.933 127.407C510.6 130.341 511 130.474 524.866 130.074L539 129.674L548.066 85.6742C552.866 61.4075 557.666 38.2075 558.466 33.9408C559.933 27.4075 560.6 26.3408 563.133 26.3408C566.066 26.3408 566.466 27.8075 571.933 52.6075C575 67.1408 580.066 90.3408 583.133 104.341L588.6 129.674L600.466 130.074C607 130.341 613.133 130.207 613.933 129.807C615.133 129.407 613.533 120.074 608.6 97.4075C604.733 79.9408 598.466 51.1408 594.6 33.2741L587.533 1.00748H563C549.533 1.00748 538.6 1.27415 538.6 1.54081C538.6 2.87415 525.133 66.8742 524.866 67.2742C524.6 67.4075 521.533 53.6741 518.066 36.6075C514.6 19.6741 511.533 4.60748 511.133 3.27415C510.466 1.27415 508.066 1.00748 486.2 1.00748H461.933L448.2 63.9408Z" fill="white"/>
<path d="M732.2 54.6079C732.6 107.275 732.6 108.475 735.533 113.941C741.133 124.341 749.266 128.741 765.533 129.941L775.933 130.741V117.141V103.675H767.266H758.6V77.6745V51.6745H767.266H775.933V38.3412V25.0079H767.266H758.6V13.0079V1.00787H745.266H731.8L732.2 54.6079Z" fill="white"/>
<path d="M846.6 9.00781V17.0078H859.933H873.266V9.00781V1.00781H859.933H846.6V9.00781Z" fill="#D3222A"/>
<path d="M371.533 25.1413C368.067 25.6746 362.6 27.6746 359.4 29.4079L353.4 32.7413L353 29.1413C352.6 25.9413 352.067 25.6746 344.867 25.2746L337.267 24.8746L337.533 77.2746L337.933 129.675H345.267H352.6L353.267 91.0079C353.8 57.9413 354.2 51.8079 356.2 48.2079C359.8 41.5413 365.533 39.6746 381.933 39.6746C399.267 39.6746 403 41.2746 407 50.0746C409.667 55.9413 409.933 59.0079 410.333 93.4079L410.867 130.475L417.8 130.075L424.6 129.675V93.6746C424.6 51.8079 423.533 46.2079 414.467 36.3413C405.8 27.0079 388.733 22.4746 371.533 25.1413Z" fill="#D3222A"/>
<path d="M826.6 25.5408C822.6 26.3408 817.8 28.0742 815.933 29.4075C811.533 32.4742 810.6 32.3408 810.6 28.3408C810.6 25.0075 810.6 25.0075 797.933 25.0075H785.267V77.6742V130.341H797.8H810.467L810.867 95.9408C811.4 58.7408 811.933 55.8075 818.733 52.2075C820.867 51.1408 825.8 50.3408 829.933 50.3408H837.267V37.0075C837.267 27.1408 836.867 23.6742 835.667 23.8075C834.733 23.8075 830.6 24.6075 826.6 25.5408Z" fill="white"/>
<path d="M925.933 25.0075C907.267 27.1408 895.133 34.2075 888.333 47.2741C882.733 57.8075 880.733 68.4742 881.8 82.6075C882.867 99.1408 886.467 107.941 895.933 117.274C905.933 127.141 915.533 130.341 934.6 130.341C958.6 130.341 972.867 123.407 980.867 107.807C987.8 94.6075 987.667 94.3408 972.467 94.3408C960.6 94.3408 959.533 94.6075 957.133 97.5408C953 102.874 946.6 105.007 935 105.007C914.867 105.007 905.933 96.4742 905.933 77.0075C905.933 64.6075 909.8 56.7408 917.933 51.9408C922.733 49.2741 924.733 49.0075 936.067 49.2741C948.467 49.6741 949.267 49.9408 954.333 53.9408C959.667 58.2075 960.2 58.3408 972.467 58.3408C980.6 58.3408 985.267 57.8075 985.267 56.8741C985.267 53.2741 978.067 40.7408 973.8 37.1408C962.6 27.2741 945.267 22.8741 925.933 25.0075Z" fill="white"/>
<path d="M1021.93 25.0078C1016.87 25.5412 1010.07 27.1412 1007 28.3412C995.8 32.8745 989.533 44.3412 991.133 57.5412C993.266 75.5412 1002.87 81.8078 1039.27 88.3412C1053 90.8745 1057.27 93.0078 1057.27 97.6745C1057.27 103.408 1052.87 105.008 1037 105.008C1019.93 105.008 1016.2 103.808 1015.13 98.3412L1014.33 94.3412H1002.33H990.333L991.266 100.608C993.133 114.475 999.8 122.741 1013.27 127.808C1021.93 131.008 1046.2 131.408 1057.93 128.341C1073.27 124.341 1081.27 114.075 1081.27 98.3412C1081.13 87.1412 1077.93 79.8078 1070.6 74.4745C1063.8 69.5412 1056.87 67.2745 1037.93 63.6745C1020.2 60.3412 1016.33 58.8745 1015.27 55.4078C1013.53 50.0745 1016.6 49.0078 1033.8 49.0078C1051.13 49.0078 1055.93 50.4745 1055.93 55.8078C1055.93 58.0745 1057 58.3412 1068.07 58.3412H1080.33L1079.4 52.0745C1077.67 39.4078 1068.73 29.9412 1055.27 26.6078C1047.13 24.4745 1032.33 23.8078 1021.93 25.0078Z" fill="white"/>
<path d="M241.667 26.8746C223.267 32.7413 211.4 49.2746 209.667 71.6746C208.2 91.8079 214.867 110.208 227.533 120.608C236.067 127.408 245.133 130.341 258.067 130.341C269 130.341 276.067 128.208 284.6 122.341L290.6 118.208V124.341V130.475L297.667 130.075L304.6 129.675L305 77.2746L305.267 25.0079H297.933H290.6V30.3413C290.6 33.2746 290.333 35.6746 289.933 35.6746C289.667 35.6746 286.467 33.8079 283 31.6746C279.533 29.4079 274.6 27.0079 271.933 26.3413C265.4 24.4746 248.333 24.8746 241.667 26.8746ZM275 41.5413C280.333 43.8079 284.6 48.3413 287.133 54.4746C289.933 61.0079 291.133 80.0746 289.4 90.2079C286.333 109.141 279.667 114.341 258.467 114.341C243.267 114.341 240.467 113.541 234.2 107.008C227.8 100.475 224.733 90.0746 224.733 75.4079C224.867 65.1413 225.267 62.8746 229.133 55.1413C235.4 42.4746 240.333 39.6746 257.667 39.6746C265.8 39.6746 272.333 40.3413 275 41.5413Z" fill="#D3222A"/>
<path d="M313.267 77.6742V130.341H321.267H329.267V77.6742V25.0075H321.267H313.267V77.6742Z" fill="#D3222A"/>
<path d="M649.934 26.8748C633.8 32.0748 624.2 41.4081 619.8 55.9415C617.4 63.8081 617 67.6748 617.534 80.8748C618.067 95.4081 618.467 97.4081 622.334 105.408C627.267 115.408 633.4 121.275 643.934 126.208C650.734 129.408 652.6 129.675 669.934 129.675C687.667 129.675 689 129.541 696.867 125.808C707.267 121.008 714.6 113.275 718.467 103.141C719.934 99.0081 721.267 95.2748 721.267 95.0081C721.267 94.6081 715.4 94.3415 708.2 94.3415C695.667 94.3415 694.867 94.4748 691.8 97.8081C687 103.141 681.134 105.008 669.667 105.008C654.334 105.008 645.8 100.075 643.134 89.8081L642.334 86.3415H682.467H722.6V75.9415C722.6 63.9415 720.2 53.9415 715.534 45.9415C710.867 38.0748 705.934 33.8081 696.6 29.4081C689.4 26.0748 687 25.6748 671.934 25.4081C660.867 25.1415 653.4 25.6748 649.934 26.8748ZM684.334 50.8748C688.6 52.6081 695.934 59.9415 695.934 62.4748C695.934 63.1415 685 63.6748 669.934 63.6748C649.934 63.6748 643.934 63.2748 643.934 61.9415C643.934 59.4081 650.467 52.8748 655.134 50.8748C660.6 48.6081 678.734 48.4748 684.334 50.8748Z" fill="white"/>
<path d="M846.6 77.6742V130.341H859.266H871.933V87.9408C871.933 64.4742 872.333 40.8741 872.733 35.2741L873.666 25.0075H860.066H846.6V77.6742Z" fill="white"/>
</svg>
