<svg width="1082" height="132" viewBox="0 0 1082 132" fill="none" xmlns="http://www.w3.org/2000/svg">
<path d="M39.5997 1.80064C18.6664 4.86731 6.66641 16.734 1.86641 38.8673C-0.533594 50.334 -0.533594 81.0006 1.86641 92.4673C5.59974 109.801 13.4664 120.734 26.6664 126.867C33.4664 130.067 35.3331 130.334 52.6664 130.334C69.4664 130.334 71.9997 130.067 78.2664 127.134C86.6664 123.401 96.3997 113.401 99.9997 104.867C104.4 94.8673 103.866 93.6673 95.4664 93.6673C88.3997 93.6673 88.1331 93.8006 86.7997 98.0673C84.1331 106.067 77.8664 112.067 69.7331 114.467C58.3997 117.801 37.1997 116.601 29.3331 112.201C17.9997 105.934 13.8664 90.334 15.0664 58.334C16.2664 23.6673 22.9331 16.334 53.1997 16.334C74.7997 16.334 81.7331 20.0673 86.7997 33.8006L89.7331 41.6673H96.9331H104.266L103.333 36.6006C102 28.734 96.7997 18.734 91.3331 13.4006C80.2664 2.46731 62.2664 -1.53269 39.5997 1.80064Z" fill="#D3222A"/>
<path d="M113.6 65.9338L114 130.334L120.933 130.734L127.866 131.134L128.266 92.7338C128.666 50.0671 129.066 48.2005 137.733 43.0005C141.333 40.7338 144.533 40.3338 157.466 40.3338C171.2 40.3338 173.333 40.6005 176.533 43.1338C184.266 49.2671 184.666 51.0005 185.333 92.3338L186 130.334H193.333H200.666L201.066 104.334C201.733 59.2671 198.666 43.8005 187.466 34.2005C180.666 28.3338 171.066 25.5338 156.933 25.4005C146 25.1338 144 25.8005 129.066 33.4005C128.4 33.6671 128 26.6005 128 17.8004V1.66712H120.666H113.333L113.6 65.9338Z" fill="#D3222A"/>
<path d="M313.333 9.00065V16.334H321.333H329.333V9.00065V1.66732H321.333H313.333V9.00065Z" fill="black"/>
<path d="M448.266 64.6C440.666 99.2667 434.533 128.467 434.666 129.267C434.666 130.6 438.133 131 447.2 131C454.133 131 460.133 130.6 460.4 129.933C460.8 129.4 466.133 106.067 472.266 78.0667C482.8 29.4 483.466 27 486.266 27C488.266 27 489.466 27.9333 490 29.9333C490.4 31.6667 494.933 53.6667 500 79C505.066 104.333 509.6 126.333 510 128.067C510.666 131 511.066 131.133 524.933 130.733L539.066 130.333L548.133 86.3333C552.933 62.0667 557.733 38.8667 558.533 34.6C560 28.0667 560.666 27 563.2 27C566.133 27 566.533 28.4667 572 53.2667C575.066 67.8 580.133 91 583.2 105L588.666 130.333L600.533 130.733C607.066 131 613.2 130.867 614 130.467C615.2 130.067 613.6 120.733 608.666 98.0667C604.8 80.6 598.533 51.8 594.666 33.9333L587.6 1.66666H563.066C549.6 1.66666 538.666 1.93333 538.666 2.19999C538.666 3.53333 525.2 67.5333 524.933 67.9333C524.666 68.0667 521.6 54.3333 518.133 37.2667C514.666 20.3333 511.6 5.26666 511.2 3.93333C510.533 1.93333 508.133 1.66666 486.266 1.66666H462L448.266 64.6Z" fill="black"/>
<path d="M732.266 55.2671C732.666 107.934 732.666 109.134 735.6 114.6C741.2 125 749.333 129.4 765.6 130.6L776 131.4V117.8V104.334H767.333H758.666V78.3337V52.3337H767.333H776V39.0004V25.6671H767.333H758.666V13.6671V1.66705H745.333H731.866L732.266 55.2671Z" fill="black"/>
<path d="M846.666 9.66699V17.667H859.999H873.333V9.66699V1.66699H859.999H846.666V9.66699Z" fill="#D3222A"/>
<path d="M371.6 25.8005C368.133 26.3338 362.666 28.3338 359.466 30.0671L353.466 33.4005L353.066 29.8005C352.666 26.6005 352.133 26.3338 344.933 25.9338L337.333 25.5338L337.6 77.9338L338 130.334H345.333H352.666L353.333 91.6671C353.866 58.6005 354.266 52.4671 356.266 48.8671C359.866 42.2005 365.6 40.3338 382 40.3338C399.333 40.3338 403.066 41.9338 407.066 50.7338C409.733 56.6005 410 59.6671 410.4 94.0671L410.933 131.134L417.866 130.734L424.666 130.334V94.3338C424.666 52.4671 423.6 46.8671 414.533 37.0005C405.866 27.6671 388.8 23.1338 371.6 25.8005Z" fill="#D3222A"/>
<path d="M826.666 26.2C822.666 27 817.866 28.7333 816 30.0667C811.6 33.1333 810.666 33 810.666 29C810.666 25.6667 810.666 25.6667 798 25.6667H785.333V78.3333V131H797.866H810.533L810.933 96.6C811.466 59.4 812 56.4667 818.8 52.8667C820.933 51.8 825.866 51 830 51H837.333V37.6667C837.333 27.8 836.933 24.3333 835.733 24.4667C834.8 24.4667 830.666 25.2667 826.666 26.2Z" fill="black"/>
<path d="M926 25.6667C907.333 27.8 895.2 34.8667 888.4 47.9333C882.8 58.4667 880.8 69.1333 881.866 83.2667C882.933 99.8 886.533 108.6 896 117.933C906 127.8 915.6 131 934.666 131C958.666 131 972.933 124.067 980.933 108.467C987.866 95.2667 987.733 95 972.533 95C960.666 95 959.6 95.2667 957.2 98.2C953.066 103.533 946.666 105.667 935.066 105.667C914.933 105.667 906 97.1333 906 77.6667C906 65.2667 909.866 57.4 918 52.6C922.8 49.9333 924.8 49.6667 936.133 49.9333C948.533 50.3333 949.333 50.6 954.4 54.6C959.733 58.8667 960.266 59 972.533 59C980.666 59 985.333 58.4667 985.333 57.5333C985.333 53.9333 978.133 41.4 973.866 37.8C962.666 27.9333 945.333 23.5333 926 25.6667Z" fill="black"/>
<path d="M1022 25.667C1016.93 26.2003 1010.13 27.8003 1007.07 29.0003C995.866 33.5337 989.599 45.0003 991.199 58.2003C993.333 76.2003 1002.93 82.467 1039.33 89.0003C1053.07 91.5337 1057.33 93.667 1057.33 98.3337C1057.33 104.067 1052.93 105.667 1037.07 105.667C1020 105.667 1016.27 104.467 1015.2 99.0003L1014.4 95.0003H1002.4H990.399L991.333 101.267C993.199 115.134 999.866 123.4 1013.33 128.467C1022 131.667 1046.27 132.067 1058 129C1073.33 125 1081.33 114.734 1081.33 99.0003C1081.2 87.8003 1078 80.467 1070.67 75.1337C1063.87 70.2003 1056.93 67.9337 1038 64.3337C1020.27 61.0003 1016.4 59.5337 1015.33 56.067C1013.6 50.7337 1016.67 49.667 1033.87 49.667C1051.2 49.667 1056 51.1337 1056 56.467C1056 58.7337 1057.07 59.0003 1068.13 59.0003H1080.4L1079.47 52.7337C1077.73 40.067 1068.8 30.6003 1055.33 27.267C1047.2 25.1337 1032.4 24.467 1022 25.667Z" fill="black"/>
<path d="M241.733 27.5338C223.333 33.4005 211.466 49.9338 209.733 72.3338C208.266 92.4671 214.933 110.867 227.6 121.267C236.133 128.067 245.2 131 258.133 131C269.066 131 276.133 128.867 284.666 123L290.666 118.867V125V131.134L297.733 130.734L304.666 130.334L305.066 77.9338L305.333 25.6671H298H290.666V31.0005C290.666 33.9338 290.4 36.3338 290 36.3338C289.733 36.3338 286.533 34.4671 283.066 32.3338C279.6 30.0671 274.666 27.6671 272 27.0005C265.466 25.1338 248.4 25.5338 241.733 27.5338ZM275.066 42.2005C280.4 44.4671 284.666 49.0005 287.2 55.1338C290 61.6671 291.2 80.7338 289.466 90.8671C286.4 109.8 279.733 115 258.533 115C243.333 115 240.533 114.2 234.266 107.667C227.866 101.134 224.8 90.7338 224.8 76.0671C224.933 65.8005 225.333 63.5338 229.2 55.8005C235.466 43.1338 240.4 40.3338 257.733 40.3338C265.866 40.3338 272.4 41.0005 275.066 42.2005Z" fill="#D3222A"/>
<path d="M313.333 78.3333V131H321.333H329.333V78.3333V25.6667H321.333H313.333V78.3333Z" fill="#D3222A"/>
<path d="M650 27.534C633.867 32.734 624.267 42.0673 619.867 56.6006C617.467 64.4673 617.067 68.334 617.6 81.534C618.133 96.0673 618.533 98.0673 622.4 106.067C627.333 116.067 633.467 121.934 644 126.867C650.8 130.067 652.667 130.334 670 130.334C687.733 130.334 689.067 130.201 696.933 126.467C707.333 121.667 714.667 113.934 718.533 103.801C720 99.6673 721.333 95.934 721.333 95.6673C721.333 95.2673 715.467 95.0006 708.267 95.0006C695.733 95.0006 694.933 95.134 691.867 98.4673C687.067 103.801 681.2 105.667 669.733 105.667C654.4 105.667 645.867 100.734 643.2 90.4673L642.4 87.0006H682.533H722.667V76.6006C722.667 64.6006 720.267 54.6006 715.6 46.6006C710.933 38.734 706 34.4673 696.667 30.0673C689.467 26.734 687.067 26.334 672 26.0673C660.933 25.8006 653.467 26.334 650 27.534ZM684.4 51.534C688.667 53.2673 696 60.6006 696 63.134C696 63.8006 685.067 64.334 670 64.334C650 64.334 644 63.934 644 62.6006C644 60.0673 650.533 53.534 655.2 51.534C660.667 49.2673 678.8 49.134 684.4 51.534Z" fill="black"/>
<path d="M846.666 78.3333V131H859.333H871.999V88.6C871.999 65.1333 872.399 41.5333 872.799 35.9333L873.733 25.6667H860.133H846.666V78.3333Z" fill="black"/>
</svg>
